<?xml version="1.0" encoding="UTF-8"?>
<!-- Generated by Pixelmator Pro 3.2.3 -->
<svg width="577" height="633" viewBox="0 0 577 633" xmlns="http://www.w3.org/2000/svg" xmlns:xlink="http://www.w3.org/1999/xlink">
    <g id="Group">
        <path id="Path" fill="#000000" stroke="none" d="M 279.444305 474.985596 C 280.737518 476.77124 283.868073 476.676758 286.953186 484.551758 C 287.771118 486.639648 287.06543 489.278931 287.580872 491.901489 C 287.787384 492.952484 287.398041 494.140137 286.57077 494.78363 C 285.060059 495.958618 284.163147 497.809387 282.293213 498.568909 C 281.698059 498.810852 281.409698 499.422058 280.997406 499.877686 C 279.443848 501.594482 276.466431 502.055115 274.536682 500.872498 C 273.071167 499.974365 273.247314 498.52179 272.222839 496.333618 C 271.549683 494.896118 270.029388 496.288879 269.84967 496.559265 C 269.120758 497.656982 267.999634 498.095612 266.795929 498.453857 C 264.498352 499.137543 262.129486 497.604309 262.036652 495.201721 C 261.692291 486.284302 265.739136 488.21402 252.560699 485.979401 C 250.499817 485.630035 252.113449 487.067291 245.718781 484.818329 C 236.12439 481.444153 235.166916 479.678314 232.141174 479.341614 C 230.096329 479.1138 228.147675 478.460266 226.196396 477.885437 C 218.172073 475.521362 161.06897 464.98053 159.980621 464.870453 C 157.179092 464.587128 154.648209 463.221405 151.868469 462.984253 C 147.750046 462.632965 143.965225 461.036316 140.039215 459.97287 C 138.361206 459.518433 136.918457 458.589905 135.463486 457.595398 C 127.38723 452.07489 106.578827 443.130432 107.948837 426.59314 C 108.645935 418.177063 109.654839 408.621887 126.150269 404.108643 C 160.942856 394.588898 173.887741 395.456604 200.873291 392.289673 C 202.492661 392.09967 202.489059 392.064514 202.21817 390.433167 C 199.031601 371.244843 194.867249 383.216492 187.267685 327.706421 C 186.284622 320.526123 185.184555 313.365204 182.212158 306.664948 C 175.315903 291.119537 185.110123 276.005371 185.560486 273.44577 C 186.064468 270.580811 187.579742 270.733978 188.926056 267.126007 C 189.548492 265.458038 190.440613 263.896362 191.000107 262.19516 C 191.459808 260.79715 195.869934 259.344574 197.558929 257.490692 C 200.424362 254.345276 203.758804 251.813446 207.531906 249.868866 C 209.0905 249.065765 209.819885 247.494507 210.971176 246.320221 C 218.229507 238.916656 216.487366 241.338898 221.326813 237.127411 C 223.399658 235.323761 225.473221 233.422241 227.818405 232.110138 C 231.000656 230.329742 232.862915 227.23291 235.726669 225.207916 C 247.967743 216.552551 267.589447 140.38269 305.35202 119.330444 C 308.652039 117.490662 312.595764 119.661865 315.411865 122.181519 C 330.96875 136.100128 346.727386 153.46756 361.544342 181.593384 C 366.154755 190.345215 368.253204 196.139465 370.067383 197.364471 C 371.416107 198.275269 373.458801 202.999359 373.72345 205.528778 C 374.060638 208.748138 374.845795 211.858154 375.959747 214.894409 C 377.794006 219.893951 377.305115 223.322449 381.432617 231.611664 C 382.128265 233.008728 382.645172 234.450073 382.967529 235.969421 L 383.006744 235.937561 C 382.51712 236.314453 382.516418 236.921112 382.322357 237.431793 C 381.07486 240.715973 379.928619 238.333954 379.225037 240.978973 C 377.555176 247.256866 376.679352 246.606201 375.936768 249.549622 C 375.495728 251.297272 374.902039 252.990356 374.179352 254.635803 C 373.412842 256.381012 372.943573 256.628723 371.006866 256.476746 C 369.505951 256.359039 368.848846 255.694489 368.190765 256.50882 C 365.079803 260.357086 367.535767 261.394928 365.700104 263.431152 C 365.10495 264.0914 364.897949 263.377563 376.499603 279.578888 C 377.773193 281.357391 378.58609 283.375214 379.418396 285.375793 C 381.725769 290.922119 382.46283 289.701416 384.733337 297.594391 C 387.729401 308.010071 392.691376 317.652344 397.351105 327.352264 C 432.5737 400.671265 419.813812 367.773499 446.360229 421.909698 C 453.479767 436.428497 454.89859 445.961853 455.948669 450.306671 C 457.435913 456.459167 459.839966 463.472412 455.042664 470.526855 C 453.681732 472.528381 451.890778 474.191071 449.715515 475.349792 C 440.158173 480.440002 438.14566 480.106934 434.019562 480.675262 C 383.926392 487.574371 317.447144 475.860718 315.43988 471.2948 C 314.564972 469.304993 312.884338 468.357605 311.065643 467.533173 C 303.882721 464.277222 293.190643 457.836853 282.193176 454.851776 C 275.0672 452.91748 274.913818 454.05896 273.214264 455.62616 C 266.716949 461.618774 276.085205 470.346924 279.444305 474.985596 Z M 330.161591 323.313293 C 331.117371 326.376373 329.224243 329.124786 329.161072 332.108429 C 329.157227 332.294342 328.103088 333.019684 328.396484 333.683289 C 328.656616 334.27124 328.229706 334.470581 327.9758 334.879791 C 325.821594 338.349701 327.298798 335.23111 327.464874 344.799408 C 327.571594 350.953827 334.086395 360.735107 331.454315 367.833313 C 330.63446 370.044495 332.803741 372.984558 331.722321 378.856628 C 331.240631 381.473145 333.341705 383.369141 336.211914 386.784729 C 339.908173 391.183167 340.287476 391.460724 348.14212 396.638306 C 350.996796 398.519958 353.496307 400.992188 356.924103 401.962097 C 357.566864 402.143982 358.516663 402.558685 358.424286 403.366089 C 358.232391 405.045746 360.312164 404.723145 360.5065 405.55307 C 360.797699 406.797699 361.694153 407.032898 364.556702 408.494598 C 366.375885 409.42334 363.885223 409.921082 365.500031 410.540649 C 366.884644 411.071655 367.952881 412.189697 369.417664 412.590515 C 371.294739 413.104309 371.220123 414.643005 370.304291 414.051208 C 368.735168 413.037781 366.906891 412.576843 365.28418 411.68335 C 364.649048 411.333679 364.093872 410.740479 363.531769 411.841248 C 363.086426 412.713043 362.220612 410.263062 360.617035 411.139587 C 360.443298 411.234619 360.121674 411.164978 359.912537 411.071899 C 358.151489 410.288391 356.170532 409.988098 354.636597 408.709717 C 354.137665 408.293823 353.526001 407.797272 353.035187 408.382141 C 352.599152 408.901184 353.379791 409.353699 353.672455 409.756195 C 354.311615 410.635651 354.671783 411.771606 355.795319 412.248322 C 367.438385 417.188965 363.754333 416.151611 368.59613 418.026306 C 377.769348 421.578522 373.605743 420.515533 380.596741 423.386444 C 382.652588 424.230713 384.835022 424.684937 386.884674 425.589966 C 388.566254 426.33252 390.427795 426.673035 392.219482 427.154541 C 392.545898 427.242371 392.999115 427.331116 393.221436 426.954468 C 393.399231 426.653198 393.111603 426.379883 392.957703 426.118835 C 384.308594 411.428711 386.231354 405.325012 375.047791 358.97168 C 374.02594 354.736237 369.913727 330.529968 365.408112 327.581024 C 357.764771 322.578156 340.216675 327.216797 345.588287 307.877747 C 346.13797 305.898926 347.296204 304.130493 347.688171 302.140198 C 348.220612 299.437012 349.792145 297.166748 350.509338 294.552338 C 351.013062 292.716675 351.210999 290.829041 351.640747 288.983276 C 351.730988 288.595856 351.551727 288.1297 351.44046 287.714722 C 351.165741 286.690979 351.124573 285.68042 351.167419 284.606415 C 351.281342 281.75415 350.637848 278.963409 350.141998 276.168579 C 350.053925 275.672516 349.746674 275.458313 349.190765 275.629181 C 348.075836 275.971863 341.384216 278.996185 336.706787 277.482361 C 334.494202 276.766357 335.289856 278.451294 333.21463 277.688629 C 330.253723 276.600769 327.251892 276.97287 324.257965 277.551758 C 323.566162 277.685516 323.32135 278.088745 323.678864 278.759735 C 325.502838 282.183716 325.774445 282.38855 324.303925 283.796844 C 323.660675 284.413055 322.772369 284.542053 322.091309 285.108948 C 320.281708 286.615387 320.74884 284.638977 327.541473 297.463226 C 329.316376 300.814209 327.861389 302.100952 328.669067 303.626038 C 329.228302 304.682312 330.616028 309.830444 330.474609 314.617493 C 330.389404 317.506836 330.596161 320.401459 330.161591 323.313293 Z M 279.562286 360.246948 C 280.024384 360.185181 280.649445 360.444824 280.866028 359.836029 C 281.053619 359.308868 280.463287 359.151886 280.174438 358.865417 C 277.292969 356.00766 278.815887 355.215332 278.795563 353.399963 C 278.629242 338.508331 298.986328 312.62384 308.999268 288.017212 C 310.180695 285.113983 307.120239 285.653381 307.731445 284.993378 C 308.856873 283.778198 307.750336 282.488098 307.874786 281.236786 C 307.944641 280.533478 307.655792 279.755035 306.758667 279.508759 C 306.442535 279.421906 306.277191 279.153412 306.143158 278.859314 C 304.441956 275.127594 304.199554 280.833313 295.246246 282.228943 C 290.429321 282.979858 286.457336 278.965088 287.202759 274.149078 C 287.490662 272.289215 288.206879 270.590637 288.9552 268.891113 C 290.157684 266.160431 286.806244 268.805206 286.56311 265.787598 C 286.443481 264.304382 285.845917 262.925262 285.743988 261.426514 C 285.693237 260.679626 285.134247 259.95932 284.77002 259.245026 C 284.600342 258.91214 284.328735 258.58429 283.897278 258.725464 C 282.955841 259.033722 283.454071 261.444458 284.094696 262.258331 C 285.098328 263.533356 285.0737 264.27951 284.098267 265.585114 C 282.626312 267.556274 284.195923 266.056305 280.452728 275.454956 C 278.27652 280.918976 275.653259 286.186554 273.179108 291.519409 C 269.717102 298.981628 271.112946 297.85379 270.579559 299.96637 C 270.223938 301.374664 269.229401 302.544861 268.929077 303.985931 C 268.508606 306.003265 269.451477 307.891876 269.518005 309.880951 C 269.71756 315.84201 268.255432 329.816132 268.159485 330.47229 C 267.897919 332.258942 267.153442 333.880707 266.8172 335.664001 C 266.348419 338.151306 267.122559 340.679321 267.481506 343.184814 C 267.939545 346.380463 266.77774 350.101166 267.424316 353.133148 C 267.890259 355.318237 270.860748 356.086884 272.726105 356.992889 C 275.503448 358.341583 273.76825 359.564667 276.621979 360.117706 C 277.32074 360.253387 279.376099 360.27182 279.562286 360.246948 Z M 312.525391 182.37735 C 313.212433 182.463776 313.670929 181.946869 314.102173 181.406769 C 316.744568 178.097412 318.168671 178.801453 316.080963 177.32901 C 313.60202 175.580902 311.061096 173.91391 308.971252 171.671661 C 308.29834 170.949677 307.936035 170.978119 307.351654 171.769287 C 303.785309 176.596039 303.560364 176.729553 304.242615 177.80426 C 305.885925 180.392365 304.922729 180.934387 306.886932 180.216949 C 310.543243 178.881866 309.500854 182.332611 312.525391 182.37735 Z M 333.294067 192.291473 C 333.723145 191.554413 333.047852 191.171539 332.666626 190.736237 C 330.016113 187.710022 327.072662 185.001801 323.774109 182.693726 C 323.30603 182.366333 322.769745 181.599884 322.217682 182.067474 C 321.661774 182.538422 322.126007 183.335052 322.330627 183.967773 C 322.407684 184.205872 324.721252 188.006012 325.500183 189.166168 C 328.138519 193.097198 332.680969 193.344666 333.294067 192.291473 Z"/>
        <path id="path1" fill="#000000" stroke="none" d="M 382.967743 235.969421 C 382.967743 235.969421 382.995728 235.94043 383.001495 235.938995 C 383.006744 235.937561 382.967743 235.969421 382.967743 235.969421 Z"/>
    </g>
</svg>
