<?xml version="1.0" encoding="UTF-8"?>
<!-- Generated by Pixelmator Pro 3.2.3 -->
<svg width="566" height="677" viewBox="0 0 566 677" xmlns="http://www.w3.org/2000/svg" xmlns:xlink="http://www.w3.org/1999/xlink">
    <path id="Path" fill="#000000" stroke="none" d="M 467.720795 460.638977 C 467.327362 459.94516 467.416351 459.124817 467.230652 458.375732 C 467.009338 456.720398 463.291901 452.214111 462.105164 449.233582 C 461.136963 446.979767 457.038818 441.613342 457.038818 441.613342 C 457.428131 440.818665 457.655518 439.948853 457.673492 439.067444 C 457.244354 438.053101 456.987152 434.414154 452.391907 433.635529 C 449.661987 433.085144 452.752472 431.311493 444.309082 431.809143 C 443.768066 431.857239 437.773621 431.706085 435.186554 432.704651 C 434.781464 432.89035 434.330536 432.902222 433.899811 432.924042 C 434.069733 432.696655 434.253754 432.479187 434.441345 432.265869 C 433.964996 431.639221 433.231659 431.135223 432.409393 431.30127 C 431.1008 431.540588 429.879242 430.259583 428.615967 430.882141 C 428.005066 431.151001 427.339172 430.793152 426.726318 430.704163 C 426.963409 430.233643 427.103729 429.7258 427.089935 429.198059 C 426.629333 428.923401 426.176727 428.64267 425.731903 428.353912 C 426.443085 427.262268 425.636292 426.459839 424.383789 426.144043 C 424.455078 425.719055 424.54599 425.282227 424.470825 424.8573 C 424.128754 424.412415 423.729523 423.936035 423.154236 423.821411 C 423.318359 423.147461 422.83786 422.589905 422.462341 422.089783 C 422.145966 421.850494 421.740936 421.793274 421.383087 421.656799 C 421.473999 421.218048 421.612427 420.765442 421.503571 420.32251 C 421.201019 419.83429 420.641785 419.640625 420.153534 419.409332 C 420.139709 418.529846 419.463593 417.91507 418.870636 417.365509 C 418.534668 417.274567 418.188721 417.274567 417.852722 417.246948 C 417.192627 415.210022 416.189636 416.029266 415.911682 414.989532 C 415.593384 414.295715 414.846252 413.983521 414.114868 414.032684 C 413.524384 412.40744 413.578552 412.440887 411.908844 412.312958 C 411.738922 411.779144 411.505707 411.265198 411.114166 410.862091 C 411.616211 410.53186 411.831726 409.98645 411.90274 409.413116 C 412.499847 410.079285 413.319916 410.478546 414.211578 410.557587 C 414.583191 410.490417 414.998199 410.360016 415.150452 409.976501 C 414.871643 410.014069 414.598938 410.057434 414.332031 410.108856 C 414.468506 409.575012 414.838226 409.154205 415.286682 408.849701 C 415.848114 408.729248 416.431122 408.794464 417.006409 408.762695 C 416.7276 408.503784 416.504364 408.155914 416.158447 407.997589 C 415.832367 408.029358 415.519867 408.128021 415.207642 408.207031 C 415.35379 407.825439 415.474548 407.432251 415.674042 407.076385 C 416.061432 406.704773 416.573425 406.497223 417.030151 406.222595 C 416.889801 405.839081 416.699982 405.47934 416.401581 405.202484 C 416.601318 404.943573 416.800842 404.686584 417.002533 404.429657 C 414.745667 404.613373 416.438599 404.963196 414.361603 405.421844 C 414.503906 405.192535 414.658081 404.973114 414.816132 404.757629 C 413.958191 404.354492 413.080658 404.749603 412.270233 405.05603 C 412.116608 402.820984 412.513672 400.637878 411.855194 399.865326 C 411.797729 400.373444 411.835358 400.881317 411.8414 401.395233 C 411.428345 401.304352 411.446014 400.875244 411.363098 400.55307 C 411.155609 400.505554 410.951996 400.462158 410.752197 400.422638 C 410.582275 400.14386 410.406281 399.873047 410.224457 399.612244 C 410.064484 399.952087 409.943726 400.307983 409.842865 400.673798 C 409.512695 400.207397 409.137207 399.780243 408.793213 399.33374 C 408.506683 399.503662 408.210205 399.653961 407.909576 399.788269 C 407.891876 400.43869 407.895752 401.090759 407.870056 401.747253 C 407.233459 401.48645 407.296722 400.620483 406.850189 400.164032 C 406.91925 400.885468 407.122925 401.585327 407.292847 402.291046 C 407.168213 402.257324 406.91925 402.190186 406.794678 402.156738 C 406.072662 399.431549 397.197449 384.873505 392.527039 380.26886 C 391.372345 378.985413 391.248291 380.316071 389.599548 375.690704 C 367.128357 320.183777 383.867035 300.05484 365.27243 269.364929 C 359.091156 258.982452 348.283173 251.823853 334.289886 251.005463 C 334.216675 250.79187 334.127686 250.590424 334.02298 250.398682 C 333.746399 250.19809 322.391022 243.581085 310.243469 234.251038 C 305.654297 230.537201 303.108124 230.467316 306.209137 211.03299 C 306.315216 209.805084 311.806 204.330627 311.87619 199.645294 C 311.856567 198.89624 312.318817 198.314911 312.816986 197.812836 C 312.698456 197.265198 312.595673 196.711761 312.561981 196.152496 C 319.306061 198.206299 316.102295 192.415466 319.727417 187.765503 C 320.334198 186.887939 320.122833 185.695953 320.69809 184.812347 C 321.542206 184.239014 322.670929 184.11853 323.344849 183.294312 C 324.384583 182.072754 325.17923 180.530975 325.167358 178.892181 C 325.425415 172.687469 325.718567 175.938202 323.698761 171.995575 C 323.851013 171.906616 324.005188 171.817627 324.163239 171.732819 C 324.088074 170.827362 323.870636 169.949829 323.678894 169.066162 C 323.930054 169.046295 324.182861 169.028595 324.437897 169.012848 C 324.390381 168.696503 324.348938 168.380402 324.311371 168.065948 C 324.451721 168.026459 324.734375 167.949341 324.876678 167.909851 C 323.931152 167.208862 323.116882 166.922333 324.184814 166.063568 C 323.777527 165.907471 323.350647 165.759064 323.008575 165.490234 C 322.442413 164.526184 323.82782 162.915039 325.133362 160.416138 C 325.42984 160.574219 325.647278 160.829224 325.837128 161.106079 C 325.633484 160.653503 325.248047 159.706604 326.020874 159.617615 C 326.522919 159.483337 326.704712 159.947754 326.84314 160.329102 C 326.721313 158.400208 326.64447 158.171143 326.868835 153.788086 C 327.326141 152.394104 327.269196 151.451904 326.750305 147.798584 C 326.65332 147.112793 326.928253 146.373413 326.588135 145.729065 C 325.836853 144.303894 325.686798 142.601807 324.741852 141.275513 C 324.099426 140.688354 324.38208 139.684326 323.826721 139.043823 C 323.172424 138.160217 322.599091 137.221313 322.067474 136.26062 C 322.192078 136.258667 322.44104 136.256714 322.567566 136.256714 C 321.202362 135.188538 318.489838 130.460327 317.61203 129.834534 C 317.146729 129.622864 312.639313 126.012634 312.381836 125.762573 C 311.958801 125.35144 311.401489 125.141968 310.891418 124.869019 C 310.288513 124.574463 309.964417 123.880676 309.300171 123.696899 C 308.005127 123.052002 308.16095 124.118286 306.169067 122.30542 C 306.477417 122.301575 306.78772 122.299622 307.102142 122.299622 C 305.28653 121.409363 305.621979 122.389709 304.425842 120.848755 C 304.858826 120.890198 305.291504 120.941589 305.73056 120.943542 C 305.111633 120.548706 302.370941 119.947998 301.917542 119.401733 C 301.488708 118.954956 300.796844 119.154724 300.251129 118.992493 C 299.77478 118.830627 299.278534 118.741394 298.778412 118.767334 C 297.633972 118.81073 296.507172 118.271118 295.3685 118.56366 C 294.745728 118.729797 294.107452 118.713989 293.475006 118.672546 C 291.7453 119.693481 290.826019 119.553162 289.737122 119.370239 C 289.302185 119.032288 289.043304 118.52417 288.68161 118.118835 C 288.68161 118.32251 288.679688 118.731689 288.677765 118.937256 C 287.766479 118.802979 286.890869 118.478577 286.017181 118.203918 C 286.388824 118.158386 286.766266 118.13269 287.143982 118.093445 C 286.754669 117.964905 286.349335 118.004456 285.951965 118.022156 C 285.374786 117.917419 284.894562 117.506287 284.301331 117.480591 C 278.152405 117.238831 282.678589 116.333618 269.618408 118.037903 C 269.63028 118.134888 269.6521 118.324402 269.664001 118.419434 C 269.179626 118.190125 268.369232 117.735596 267.813843 117.840332 C 268.072754 118.081543 268.325836 118.328552 268.570923 118.58551 C 268.132141 118.658752 267.691162 118.6745 267.25238 118.61731 C 267.258209 118.704346 267.274231 118.878113 267.280029 118.965149 C 266.346924 119.287354 265.34671 119.313049 264.411957 119.627197 C 264.690735 119.708191 265.095795 119.724182 264.965393 120.129272 C 264.429626 120.562195 263.733917 120.647034 263.109161 120.878357 C 262.59137 121.301331 261.966644 121.57019 261.466522 122.012817 C 260.387268 123.143494 258.972046 123.855225 257.732513 124.788086 C 257.050598 125.305847 256.147339 125.292053 255.370377 125.58075 C 254.957855 125.774719 251.969864 127.969727 251.434677 128.132751 C 251.452347 128.296875 251.472244 128.462952 251.494064 128.629028 C 251.278564 128.668518 251.063034 128.711853 250.851654 128.753601 C 250.62149 129.029907 246.280167 133.111206 244.281097 136.960754 C 244.413437 137.10498 244.546066 137.251404 244.680359 137.397583 C 244.561539 137.572754 239.77562 149.714233 239.517288 150.283691 C 239.513412 150.513 239.548782 150.742371 239.57254 150.97168 C 239.349289 151.115906 239.027115 151.187195 238.957764 151.48175 C 238.714615 152.333618 238.19487 153.082947 237.997055 153.950562 C 237.844803 154.81842 237.892334 155.705933 237.757767 156.5755 C 237.63121 157.075562 238.012787 157.500549 238.018585 157.986877 C 238.052307 158.297119 237.789276 158.516541 237.672668 158.779602 C 237.749756 159.228271 238.004776 159.637512 238.016663 160.098083 C 237.888184 160.519165 237.648911 160.89856 237.526505 161.323486 C 237.532303 161.738525 237.629272 162.145813 237.682617 162.554993 C 237.905869 162.570801 238.13327 162.588745 238.36261 162.610291 C 238.796402 164.770142 238.15123 164.233887 237.391937 166.931152 C 237.046005 168.097443 236.059586 168.923584 235.670273 170.064209 C 235.741562 170.661041 236.016205 171.273895 235.80455 171.872925 C 235.32074 173.357788 233.079605 177.01828 234.242874 181.159302 C 234.638535 183.459808 235.633789 183.692749 236.225357 184.52359 C 236.533173 185.114624 236.925247 188.45105 238.004517 188.682556 C 238.840607 188.880127 239.099518 189.888367 239.915985 190.123505 C 240.884445 190.530792 241.979721 190.245911 242.954269 190.649323 C 244.14624 191.080383 245.393494 190.684967 246.544037 190.321075 C 245.797455 191.227081 247.173477 194.924622 249.406311 195.462311 C 250.274185 195.664001 251.094269 195.19928 251.875107 194.887024 C 252.207764 199.453003 255.753052 205.500244 257.842773 209.469116 C 257.39212 209.755646 256.951416 210.052124 256.51236 210.354675 C 256.532257 210.583984 256.611267 210.8172 256.577545 211.050385 C 254.618546 214.151978 251.659576 216.389465 249.222275 219.077667 C 247.467453 221.241974 247.128159 219.806854 246.016022 224.11615 C 245.385483 224.962158 244.968262 225.956329 244.236877 226.725311 C 244.065018 226.920929 243.898956 227.12262 243.770462 227.348083 C 243.770462 227.755341 243.938477 228.136658 244.017487 228.533966 C 243.793137 229.902832 241.221268 232.363037 240.455612 233.032837 C 238.645538 235.974915 221.684189 252.265137 220.880402 254.064697 C 220.653015 254.143738 220.421738 254.211151 220.206223 254.313965 C 218.812805 255.355927 216.257523 255.404236 214.613495 255.946655 C 201.345261 260.323059 198.581909 268.1315 196.175552 274.211334 C 195.896759 274.918976 195.434235 275.567444 195.3414 276.340271 C 194.644821 281.575989 188.779938 282.165924 187.869232 313.522308 C 187.389297 330.04541 188.906769 326.901062 183.183899 359.405762 C 180.749649 373.231323 173.305389 388.910614 171.06012 390.570953 C 167.841141 392.929779 159.379822 409.63855 155.216431 419.96109 C 150.300659 432.148712 145.725571 441.814758 134.03891 456.997528 C 133.566422 457.120178 133.161362 456.788086 132.771759 456.584442 C 129.782684 454.89978 124.600281 455.215637 121.178497 455.532837 C 119.304581 456.115814 117.32402 455.608002 115.424408 455.920227 C 114.612068 456.380829 113.670967 456.173279 112.78347 456.242371 C 111.850388 456.341309 111.057938 456.886719 110.188126 457.179321 C 107.702194 457.54184 106.220917 460.383942 106.809998 461.593353 C 106.914726 462.140991 107.709381 462.425568 107.517624 463.040344 C 105.52269 466.691193 104.060478 472.539764 103.694649 473.639191 C 102.59771 477.687073 101.369804 478.034973 101.312607 482.117126 C 100.148247 482.895996 98.602592 483.453339 98.150002 484.921875 C 98.213272 485.615692 98.333748 486.307556 98.412766 487.003326 C 98.810097 487.811768 99.745117 488.104431 100.517952 488.440369 C 101.820457 488.865356 102.913803 489.837952 104.315231 489.968384 C 104.912056 490.118652 105.671341 489.829956 106.135811 490.336121 C 108.329132 492.866272 113.355148 492.687805 116.038918 493.289307 C 118.165649 494.499512 117.736267 496.093262 120.609032 496.637817 C 120.444901 496.722961 120.280777 496.809723 120.116928 496.900879 C 122.264107 496.589508 122.309692 497.327515 124.811653 495.904541 C 124.369286 496.967773 122.053833 504.571716 121.783333 507.169556 C 120.760994 513.432617 123.799538 520.54248 127.533546 525.873047 C 130.308762 528.824219 133.92424 530.784912 137.577011 532.4375 C 137.853317 532.601624 157.273529 541.051941 159.273163 541.38208 C 161.296555 541.716125 163.497604 543.816101 163.508102 545.995056 C 163.511429 546.709595 163.286789 547.414978 163.332382 548.127869 C 163.458099 550.085754 165.83461 549.929932 167.258148 550.141296 C 174.46257 551.211182 185.539688 550.584229 186.454544 550.35437 C 186.454544 550.35437 230.644806 545.297119 239.083771 545.556824 C 242.750336 545.012756 242.796219 545.223633 258.393463 543.897827 C 258.670013 543.87439 295.71582 539.932861 298.591614 538.561035 C 299.552612 538.1026 299.710388 538.1604 305.33847 536.65448 C 314.900635 534.096191 331.47818 539.802185 331.754486 539.866028 C 331.754486 539.866028 333.615967 540.158875 346.043671 542.940735 C 351.375031 544.134155 352.286285 546.046143 355.488678 546.710938 C 356.534241 546.927856 357.66626 546.919312 358.648529 547.379883 C 358.670624 547.390381 364.15448 550.783447 364.15448 550.783447 C 364.73999 551.232422 365.521637 551.333557 366.18396 551.625366 C 367.426483 552.172668 372.70343 557.242126 374.245483 557.779236 C 375.541077 558.230469 376.913208 557.761047 378.239197 557.894775 C 378.866425 557.958008 379.431213 558.182922 380.061157 558.247009 C 383.972565 558.644653 381.298462 557.71405 384.208252 558.996643 C 385.138031 559.406128 387.010864 558.919006 387.040405 557.693604 C 387.047577 557.389954 386.934875 557.097351 386.893951 556.796387 C 386.810822 556.184692 387.401794 555.526001 387.607117 554.964478 C 388.555389 556.080505 390.604767 554.088074 390.604767 553.066589 C 390.604767 552.373047 391.027802 550.243774 390.347778 548.686279 C 390.021759 547.927246 389.835815 547.053589 389.183441 546.495972 C 388.944153 546.201416 388.507294 545.97821 388.550995 545.553223 C 388.910156 540.592407 386.580902 538.006165 383.842438 533.485535 C 383.235382 531.793457 379.758087 527.762695 379.466034 527.557373 C 376.324677 521.199341 374.333069 521.034058 372.915344 519.033875 C 385.379791 519.064575 387.67868 519.575195 404.343262 515.213623 C 406.573608 514.629822 408.586243 514.122009 410.933472 514.328125 C 413.041687 513.228394 414.970032 513.569946 419.67691 510.80188 C 424.143127 508.1745 435.983124 507.851196 441.295135 494.186462 C 444.660278 485.529785 441.811829 477.937683 441.678375 475.979797 C 443.629913 477.057129 442.358643 477.00708 448.033417 479.53009 C 451.271454 480.957153 458.983459 475.762634 459.602112 473.112 C 459.645752 472.924957 459.612061 471.715546 459.689972 471.660828 C 460.49649 471.093567 461.411621 470.623047 461.943268 469.755432 C 462.395844 469.000305 463.360718 468.810486 463.827118 468.073242 C 466.472748 465.048584 468.825226 462.491882 467.720795 460.638977 Z M 230.141098 369.035339 C 229.896011 369.695404 229.463043 370.308258 229.44342 371.035797 C 229.368271 372.79364 228.867599 374.570282 228.613129 374.977295 C 228.138702 375.742401 228.075439 376.66333 227.745239 377.487823 C 226.816849 378.633942 226.483627 377.746735 225.865524 380.998291 C 225.756943 381.680206 225.282532 382.2099 224.956207 382.797058 C 224.801743 383.073639 222.182083 387.019562 221.295425 391.027954 C 219.222565 400.388672 220.002304 399.882202 220.69252 402.281097 C 220.4944 404.588257 219.194107 403.764282 219.571823 408.112274 C 219.648911 408.473938 219.358231 408.762695 219.217865 409.072968 C 217.669174 411.530975 218.952896 413.156799 218.664429 414.226105 C 217.100815 415.896362 216.223251 418.120087 215.914902 420.361755 C 215.353455 421.000305 214.638092 421.539917 214.351288 422.376038 C 213.818008 423.907898 209.684189 428.148346 210.990845 434.900177 C 210.880051 435.722473 210.409775 436.522949 210.524429 437.390808 C 210.666733 438.043152 210.826996 438.697479 210.824783 439.371399 C 210.413635 439.697449 209.929276 439.991943 209.706024 440.490112 C 209.538025 440.824219 209.464798 441.296692 209.024094 441.381531 C 186.106674 448.070343 164.977509 459.651184 164.700928 459.774689 C 165.04686 458.754822 165.851471 457.989746 166.422592 457.098389 C 188.048004 425.759125 207.609406 422.596558 219.581497 326.190399 C 220.071655 326.326874 220.69252 326.380219 221.008606 326.830872 C 221.364502 328.275696 222.004974 329.637878 222.281555 331.104523 C 222.324936 332.134308 221.868469 333.168243 222.164948 334.191956 C 222.374405 334.786865 223.009079 335.118958 223.206635 335.71994 C 223.978073 339.432953 223.21106 335.923035 225.491684 340.952362 C 225.738708 341.559143 226.060883 342.138245 226.238815 342.770996 C 226.035187 343.575623 225.195206 344.216095 225.426483 345.121277 C 225.665756 346.595917 227.138199 347.246063 228.239288 348.003143 C 227.965729 348.977692 224.596451 350.631927 229.251389 353.474579 C 229.233719 354.64859 227.940872 355.344604 228.051666 356.544342 C 228.360016 357.2677 228.909592 357.872833 229.138931 358.633759 C 229.360245 359.887085 229.174576 361.197601 229.512497 362.431061 C 229.731888 363.16629 230.8349 363.300842 230.840714 364.121216 C 230.40387 365.49585 229.173477 365.973846 230.141098 369.035339 Z M 352.489929 438.456512 C 352.649902 434.900177 354.01709 428.225708 349.556671 422.457275 C 348.916199 421.676422 348.763947 420.644684 348.251923 419.792572 C 348.036407 419.355743 347.65097 418.970276 347.647095 418.462158 C 347.649048 416.835266 346.834747 415.341003 345.864105 414.087677 C 345.69223 413.810822 345.358185 413.556061 345.480591 413.198242 C 346.340729 408.485809 345.210083 408.37973 344.660217 407.003418 C 344.395264 406.467682 344.506042 405.852905 344.38559 405.28949 C 344.241364 404.512512 343.640381 403.878143 343.65033 403.065796 C 343.638458 402.395721 343.616608 401.727631 343.5 401.067261 C 343.527649 400.28064 344.164276 399.584869 344.012024 398.7742 C 343.842072 397.339081 343.088867 396.066132 342.796265 394.666626 C 342.065155 389.614105 340.255341 387.882202 337.83075 383.008148 C 337.527649 381.459167 337.751465 378.957489 334.161957 377.459656 C 334.164734 376.955078 335.06189 374.544586 334.306183 373.460907 C 333.584747 372.375854 333.165588 371.114532 332.327545 370.104645 C 331.912567 368.983917 332.671539 367.833374 332.618225 366.690857 C 332.566833 365.647247 332.651947 364.605591 332.770477 363.571655 C 333.157867 362.775055 334.007782 362.324371 334.355652 361.507904 C 334.55127 360.721252 334.316132 359.920502 334.240997 359.137756 C 334.165833 358.33728 334.565094 357.592102 334.59079 356.799377 C 334.654053 356.030396 334.486053 355.251495 334.624512 354.492493 C 338.109283 350.870117 337.024231 350.611755 336.761169 349.495483 C 337.054321 348.484741 338.243286 347.960327 338.688416 345.68631 C 339.167267 343.736145 337.044403 345.568054 341.22464 337.759918 C 341.766205 336.338593 341.084259 334.779114 341.517242 333.332092 C 342.052979 331.632263 341.287903 329.760284 342.046906 328.109619 C 342.355255 327.212189 342.875 326.376068 342.930542 325.409546 C 342.924744 325.032135 343.242767 324.818542 343.572968 324.743378 C 343.808105 325.862152 343.891266 327.002747 343.849823 328.147186 C 344.472351 338.088989 358.256714 391.394867 364.62088 402.854156 C 365.624176 404.733582 374.260681 418.076965 384.757294 427.780029 C 387.943665 430.628479 391.424591 433.138733 394.537994 436.06842 C 394.185944 437.041565 393.391876 437.578674 395.247528 439.003906 C 394.610352 440.288147 394.577484 440.760925 396.071777 441.522156 C 395.717804 442.044067 394.986725 442.553894 395.33844 443.265625 C 395.458923 443.959442 396.24585 444.15509 396.789307 444.443817 C 396.886871 445.609558 396.623535 446.334595 398.821289 446.535187 C 399.129669 446.980042 399.258118 447.5354 399.44989 448.047424 C 388.501495 446.507294 382.902985 443.524811 352.489929 438.456512 Z M 406.411987 448.144379 C 405.979004 448.031677 405.562042 447.875549 405.15094 447.717529 C 404.82486 447.863647 404.500488 448.01593 404.174438 448.1604 C 403.323151 446.961517 403.454956 447.059906 402.203583 446.879456 C 401.835785 445.930908 401.841309 444.75769 399.641937 445.171631 C 399.312561 444.131348 399.747192 444.364807 398.238556 443.574585 C 398.397156 442.433167 398.585297 442.257111 397.404388 441.236176 C 397.619934 440.856506 397.9617 440.482941 397.890686 440.016541 C 397.789856 439.305054 396.936035 438.959167 396.993256 438.194031 C 398.040192 438.975708 406.594879 447.302185 406.752106 447.484558 C 406.633301 447.699524 406.518646 447.918945 406.411987 448.144379 Z"/>
</svg>
